<svg width="104" height="61" viewBox="0 0 104 61" fill="none" xmlns="http://www.w3.org/2000/svg">
<path d="M0.999997 60.5C0.723851 60.5 0.499997 60.2761 0.499997 60C0.499997 59.7239 0.723851 59.5 0.999997 59.5L0.999997 60.5ZM53 40L53.5 40L53 40ZM53 26L52.5 26L53 26ZM73 6L73 5.5L73 6ZM104 6L99 8.88675L99 3.11325L104 6ZM101.417 6.5C101.141 6.5 100.917 6.27615 100.917 6C100.917 5.72386 101.141 5.5 101.417 5.5L101.417 6.5ZM96.25 5.5C96.5261 5.5 96.75 5.72386 96.75 6C96.75 6.27615 96.5261 6.5 96.25 6.5L96.25 5.5ZM91.0833 6.5C90.8072 6.5 90.5833 6.27615 90.5833 6C90.5833 5.72386 90.8072 5.5 91.0833 5.5L91.0833 6.5ZM85.9167 5.5C86.1928 5.5 86.4167 5.72386 86.4167 6C86.4167 6.27615 86.1928 6.5 85.9167 6.5L85.9167 5.5ZM80.75 6.5C80.4739 6.5 80.25 6.27615 80.25 6C80.25 5.72386 80.4739 5.5 80.75 5.5L80.75 6.5ZM75.5833 5.5C75.8595 5.5 76.0833 5.72386 76.0833 6C76.0833 6.27615 75.8595 6.5 75.5833 6.5L75.5833 5.5ZM70.4525 6.66485C70.1787 6.70057 69.9277 6.50754 69.892 6.23372C69.8563 5.9599 70.0493 5.70897 70.3231 5.67325L70.4525 6.66485ZM65.1527 7.05575C65.4078 6.94997 65.7003 7.07101 65.8061 7.32609C65.9119 7.58117 65.7908 7.8737 65.5358 7.97948L65.1527 7.05575ZM61.129 10.5285C60.91 10.6967 60.5961 10.6556 60.4279 10.4367C60.2596 10.2177 60.3007 9.90381 60.5197 9.73555L61.129 10.5285ZM56.7356 13.5197C56.9038 13.3007 57.2177 13.2596 57.4367 13.4279C57.6556 13.5961 57.6967 13.91 57.5285 14.129L56.7356 13.5197ZM54.9795 18.5358C54.8737 18.7908 54.5812 18.9119 54.3261 18.8061C54.071 18.7003 53.95 18.4078 54.0557 18.1527L54.9795 18.5358ZM52.6732 23.3231C52.709 23.0493 52.9599 22.8563 53.2337 22.892C53.5075 22.9277 53.7006 23.1787 53.6648 23.4525L52.6732 23.3231ZM53.5 29.5C53.5 29.7761 53.2761 30 53 30C52.7239 30 52.5 29.7761 52.5 29.5L53.5 29.5ZM52.5 36.5C52.5 36.2239 52.7239 36 53 36C53.2761 36 53.5 36.2239 53.5 36.5L52.5 36.5ZM53.3268 42.6769C53.291 42.9507 53.0401 43.1437 52.7663 43.108C52.4925 43.0723 52.2994 42.8213 52.3352 42.5475L53.3268 42.6769ZM51.0205 47.4642C51.1263 47.2091 51.4188 47.0881 51.6739 47.1939C51.929 47.2997 52.05 47.5922 51.9442 47.8473L51.0205 47.4642ZM49.2644 52.4803C49.0962 52.6993 48.7823 52.7404 48.5633 52.5721C48.3444 52.4039 48.3033 52.09 48.4715 51.871L49.2644 52.4803ZM44.871 55.4715C45.09 55.3033 45.4039 55.3444 45.5721 55.5633C45.7404 55.7823 45.6993 56.0962 45.4803 56.2644L44.871 55.4715ZM40.8473 58.9442C40.5922 59.05 40.2997 58.929 40.1939 58.6739C40.0881 58.4188 40.2091 58.1263 40.4642 58.0205L40.8473 58.9442ZM35.5475 59.3352C35.8213 59.2994 36.0723 59.4925 36.108 59.7663C36.1437 60.0401 35.9507 60.291 35.6769 60.3268L35.5475 59.3352ZM30.3333 60.5C30.0572 60.5 29.8333 60.2761 29.8333 60C29.8333 59.7239 30.0572 59.5 30.3333 59.5L30.3333 60.5ZM25 59.5C25.2761 59.5 25.5 59.7239 25.5 60C25.5 60.2761 25.2761 60.5 25 60.5L25 59.5ZM19.6667 60.5C19.3905 60.5 19.1667 60.2761 19.1667 60C19.1667 59.7239 19.3905 59.5 19.6667 59.5L19.6667 60.5ZM14.3333 59.5C14.6095 59.5 14.8333 59.7239 14.8333 60C14.8333 60.2761 14.6095 60.5 14.3333 60.5L14.3333 59.5ZM9 60.5C8.72385 60.5 8.5 60.2761 8.5 60C8.5 59.7239 8.72385 59.5 9 59.5L9 60.5ZM3.66666 59.5C3.94281 59.5 4.16666 59.7239 4.16666 60C4.16666 60.2761 3.94281 60.5 3.66666 60.5L3.66666 59.5ZM96.25 6.5L91.0833 6.5L91.0833 5.5L96.25 5.5L96.25 6.5ZM85.9167 6.5L80.75 6.5L80.75 5.5L85.9167 5.5L85.9167 6.5ZM75.5833 6.5L73 6.5L73 5.5L75.5833 5.5L75.5833 6.5ZM73 6.5C72.1363 6.5 71.286 6.55612 70.4525 6.66485L70.3231 5.67325C71.1995 5.55894 72.093 5.5 73 5.5L73 6.5ZM65.5358 7.97948C63.9507 8.63676 62.471 9.49721 61.129 10.5285L60.5197 9.73555C61.9301 8.65165 63.4858 7.74697 65.1527 7.05575L65.5358 7.97948ZM57.5285 14.129C56.4972 15.471 55.6368 16.9507 54.9795 18.5358L54.0557 18.1527C54.747 16.4858 55.6517 14.9301 56.7356 13.5197L57.5285 14.129ZM53.6648 23.4525C53.5561 24.286 53.5 25.1363 53.5 26L52.5 26C52.5 25.093 52.5589 24.1995 52.6732 23.3231L53.6648 23.4525ZM53.5 26L53.5 29.5L52.5 29.5L52.5 26L53.5 26ZM53.5 36.5L53.5 40L52.5 40L52.5 36.5L53.5 36.5ZM53.5 40C53.5 40.907 53.4411 41.8005 53.3268 42.6769L52.3352 42.5475C52.4439 41.714 52.5 40.8637 52.5 40L53.5 40ZM51.9442 47.8473C51.253 49.5142 50.3483 51.0699 49.2644 52.4803L48.4715 51.871C49.5028 50.529 50.3632 49.0493 51.0205 47.4642L51.9442 47.8473ZM45.4803 56.2644C44.0699 57.3483 42.5142 58.253 40.8473 58.9442L40.4642 58.0205C42.0493 57.3632 43.529 56.5028 44.871 55.4715L45.4803 56.2644ZM35.6769 60.3268C34.8005 60.4411 33.907 60.5 33 60.5L33 59.5C33.8637 59.5 34.714 59.4439 35.5475 59.3352L35.6769 60.3268ZM33 60.5L30.3333 60.5L30.3333 59.5L33 59.5L33 60.5ZM25 60.5L19.6667 60.5L19.6667 59.5L25 59.5L25 60.5ZM14.3333 60.5L9 60.5L9 59.5L14.3333 59.5L14.3333 60.5ZM3.66666 60.5L0.999997 60.5L0.999997 59.5L3.66666 59.5L3.66666 60.5ZM0.999997 61C0.447713 61 -2.86028e-06 60.5523 -2.90857e-06 60C-2.95685e-06 59.4477 0.447713 59 0.999997 59L0.999997 61ZM53 40L54 40L53 40ZM53 26L52 26L53 26ZM73 6L73 5L73 6ZM104 6L94 11.7735L94 0.2265L104 6ZM101.417 7C100.864 7 100.417 6.55229 100.417 6C100.417 5.44772 100.864 5 101.417 5L101.417 7ZM96.25 5C96.8023 5 97.25 5.44772 97.25 6C97.25 6.55229 96.8023 7 96.25 7L96.25 5ZM91.0833 7C90.531 7 90.0833 6.55229 90.0833 6C90.0833 5.44772 90.531 5 91.0833 5L91.0833 7ZM85.9167 5C86.4689 5 86.9167 5.44772 86.9167 6C86.9167 6.55229 86.4689 7 85.9167 7L85.9167 5ZM80.75 7C80.1977 7 79.75 6.55229 79.75 6C79.75 5.44772 80.1977 5 80.75 5L80.75 7ZM75.5833 5C76.1356 5 76.5833 5.44772 76.5833 6C76.5833 6.55229 76.1356 7 75.5833 7L75.5833 5ZM70.5172 7.16065C69.9695 7.23208 69.4676 6.84604 69.3962 6.29839C69.3248 5.75075 69.7108 5.24888 70.2585 5.17745L70.5172 7.16065ZM64.9612 6.59389C65.4713 6.38233 66.0564 6.6244 66.268 7.13456C66.4795 7.64472 66.2375 8.22978 65.7273 8.44134L64.9612 6.59389ZM61.4336 10.9249C60.9957 11.2615 60.3679 11.1793 60.0314 10.7413C59.6949 10.3034 59.7771 9.67562 60.215 9.33909L61.4336 10.9249ZM56.3391 13.215C56.6756 12.7771 57.3034 12.6949 57.7413 13.0314C58.1793 13.3679 58.2615 13.9957 57.9249 14.4336L56.3391 13.215ZM55.4413 18.7273C55.2298 19.2375 54.6447 19.4795 54.1346 19.268C53.6244 19.0564 53.3823 18.4713 53.5939 17.9612L55.4413 18.7273ZM52.1774 23.2585C52.2489 22.7108 52.7507 22.3248 53.2984 22.3962C53.846 22.4676 54.2321 22.9695 54.1606 23.5172L52.1774 23.2585ZM54 29.5C54 30.0523 53.5523 30.5 53 30.5C52.4477 30.5 52 30.0523 52 29.5L54 29.5ZM52 36.5C52 35.9477 52.4477 35.5 53 35.5C53.5523 35.5 54 35.9477 54 36.5L52 36.5ZM53.8226 42.7415C53.7511 43.2892 53.2493 43.6752 52.7016 43.6038C52.154 43.5323 51.7679 43.0305 51.8394 42.4828L53.8226 42.7415ZM50.5587 47.2727C50.7702 46.7625 51.3553 46.5205 51.8654 46.732C52.3756 46.9436 52.6177 47.5286 52.4061 48.0388L50.5587 47.2727ZM49.6609 52.785C49.3244 53.2229 48.6966 53.3051 48.2587 52.9686C47.8207 52.6321 47.7385 52.0043 48.0751 51.5664L49.6609 52.785ZM44.5664 55.0751C45.0043 54.7385 45.6321 54.8207 45.9686 55.2587C46.3051 55.6966 46.2229 56.3244 45.785 56.6609L44.5664 55.0751ZM41.0388 59.4061C40.5286 59.6177 39.9436 59.3756 39.732 58.8654C39.5205 58.3553 39.7625 57.7702 40.2727 57.5587L41.0388 59.4061ZM35.4828 58.8394C36.0305 58.7679 36.5323 59.154 36.6038 59.7016C36.6752 60.2493 36.2892 60.7511 35.7415 60.8226L35.4828 58.8394ZM30.3333 61C29.781 61 29.3333 60.5523 29.3333 60C29.3333 59.4477 29.781 59 30.3333 59L30.3333 61ZM25 59C25.5523 59 26 59.4477 26 60C26 60.5523 25.5523 61 25 61L25 59ZM19.6667 61C19.1144 61 18.6667 60.5523 18.6667 60C18.6667 59.4477 19.1144 59 19.6667 59L19.6667 61ZM14.3333 59C14.8856 59 15.3333 59.4477 15.3333 60C15.3333 60.5523 14.8856 61 14.3333 61L14.3333 59ZM9 61C8.44771 61 8 60.5523 8 60C8 59.4477 8.44771 59 9 59L9 61ZM3.66666 59C4.21895 59 4.66666 59.4477 4.66666 60C4.66666 60.5523 4.21895 61 3.66666 61L3.66666 59ZM96.25 7L91.0833 7L91.0833 5L96.25 5L96.25 7ZM85.9167 7L80.75 7L80.75 5L85.9167 5L85.9167 7ZM75.5833 7L73 7L73 5L75.5833 5L75.5833 7ZM73 7C72.158 7 71.3293 7.05471 70.5172 7.16065L70.2585 5.17745C71.1562 5.06035 72.0713 5 73 5L73 7ZM65.7273 8.44134C64.1832 9.08166 62.7414 9.91999 61.4336 10.9249L60.215 9.33909C61.6597 8.22888 63.2534 7.30208 64.9612 6.59389L65.7273 8.44134ZM57.9249 14.4336C56.92 15.7414 56.0817 17.1832 55.4413 18.7273L53.5939 17.9612C54.3021 16.2534 55.2289 14.6597 56.3391 13.215L57.9249 14.4336ZM54.1606 23.5172C54.0547 24.3293 54 25.158 54 26L52 26C52 25.0713 52.0603 24.1562 52.1774 23.2585L54.1606 23.5172ZM54 26L54 29.5L52 29.5L52 26L54 26ZM54 36.5L54 40L52 40L52 36.5L54 36.5ZM54 40C54 40.9287 53.9397 41.8438 53.8226 42.7415L51.8394 42.4828C51.9453 41.6707 52 40.842 52 40L54 40ZM52.4061 48.0388C51.6979 49.7466 50.7711 51.3403 49.6609 52.785L48.0751 51.5664C49.08 50.2586 49.9183 48.8168 50.5587 47.2727L52.4061 48.0388ZM45.785 56.6609C44.3403 57.7711 42.7466 58.6979 41.0388 59.4061L40.2727 57.5587C41.8168 56.9183 43.2586 56.08 44.5664 55.0751L45.785 56.6609ZM35.7415 60.8226C34.8438 60.9396 33.9287 61 33 61L33 59C33.842 59 34.6707 58.9453 35.4828 58.8394L35.7415 60.8226ZM33 61L30.3333 61L30.3333 59L33 59L33 61ZM25 61L19.6667 61L19.6667 59L25 59L25 61ZM14.3333 61L9 61L9 59L14.3333 59L14.3333 61ZM3.66666 61L0.999997 61L0.999997 59L3.66666 59L3.66666 61Z" fill="url(#paint0_linear_1_496)"/>
<defs>
<linearGradient id="paint0_linear_1_496" x1="53" y1="60" x2="-7.12903" y2="67.0831" gradientUnits="userSpaceOnUse">
<stop stop-color="#224D6F"/>
<stop offset="1" stop-color="#224D6F" stop-opacity="0"/>
</linearGradient>
</defs>
</svg>
