<svg width="931" height="189" viewBox="0 0 931 189" fill="none" xmlns="http://www.w3.org/2000/svg">
<path d="M929.5 0.999996C929.5 0.723857 929.724 0.499996 930 0.499996C930.276 0.499995 930.5 0.723857 930.5 0.999995L929.5 0.999996ZM6.0001 180.375L5.5001 180.375L5.5001 180.375L6.0001 180.375ZM6 155.257L8.88677 160.257L3.11327 160.257L6 155.257ZM6.50001 158.397C6.50001 158.673 6.27615 158.897 6.00001 158.897C5.72387 158.897 5.50001 158.673 5.50001 158.397L6.50001 158.397ZM5.50003 164.676C5.50003 164.4 5.72389 164.176 6.00003 164.176C6.27618 164.176 6.50003 164.4 6.50003 164.676L5.50003 164.676ZM6.50006 170.956C6.50006 171.232 6.2762 171.456 6.00006 171.456C5.72392 171.456 5.50006 171.232 5.50006 170.956L6.50006 170.956ZM5.50008 177.235C5.50008 176.959 5.72394 176.735 6.00008 176.735C6.27623 176.735 6.50008 176.959 6.50008 177.235L5.50008 177.235ZM6.90202 183.26C6.98514 183.524 6.83905 183.805 6.57571 183.888C6.31238 183.971 6.03152 183.825 5.9484 183.561L6.90202 183.26ZM10.4518 188.054C10.1884 187.971 10.0418 187.691 10.1246 187.427C10.2073 187.164 10.4879 187.017 10.7514 187.1L10.4518 188.054ZM16.6262 187.5C16.9024 187.5 17.1262 187.724 17.1262 188C17.1262 188.276 16.9024 188.5 16.6262 188.5L16.6262 187.5ZM22.602 188.5C22.3258 188.5 22.102 188.276 22.102 188C22.102 187.724 22.3258 187.5 22.602 187.5L22.602 188.5ZM28.5777 187.5C28.8539 187.5 29.0777 187.724 29.0777 188C29.0777 188.276 28.8539 188.5 28.5777 188.5L28.5777 187.5ZM34.5535 188.5C34.2773 188.5 34.0535 188.276 34.0535 188C34.0535 187.724 34.2773 187.5 34.5535 187.5L34.5535 188.5ZM40.5292 187.5C40.8054 187.5 41.0292 187.724 41.0292 188C41.0292 188.276 40.8054 188.5 40.5292 188.5L40.5292 187.5ZM46.505 188.5C46.2288 188.5 46.005 188.276 46.005 188C46.005 187.724 46.2288 187.5 46.505 187.5L46.505 188.5ZM52.4807 187.5C52.7569 187.5 52.9807 187.724 52.9807 188C52.9807 188.276 52.7569 188.5 52.4807 188.5L52.4807 187.5ZM58.4565 188.5C58.1803 188.5 57.9565 188.276 57.9565 188C57.9565 187.724 58.1803 187.5 58.4565 187.5L58.4565 188.5ZM64.4322 187.5C64.7083 187.5 64.9322 187.724 64.9322 188C64.9322 188.276 64.7083 188.5 64.4322 188.5L64.4322 187.5ZM70.4079 188.5C70.1318 188.5 69.9079 188.276 69.9079 188C69.9079 187.724 70.1318 187.5 70.4079 187.5L70.4079 188.5ZM76.3837 187.5C76.6598 187.5 76.8837 187.724 76.8837 188C76.8837 188.276 76.6598 188.5 76.3837 188.5L76.3837 187.5ZM82.3594 188.5C82.0833 188.5 81.8594 188.276 81.8594 188C81.8594 187.724 82.0833 187.5 82.3594 187.5L82.3594 188.5ZM88.3352 187.5C88.6113 187.5 88.8352 187.724 88.8352 188C88.8352 188.276 88.6113 188.5 88.3352 188.5L88.3352 187.5ZM94.3109 188.5C94.0348 188.5 93.8109 188.276 93.8109 188C93.8109 187.724 94.0348 187.5 94.3109 187.5L94.3109 188.5ZM100.287 187.5C100.563 187.5 100.787 187.724 100.787 188C100.787 188.276 100.563 188.5 100.287 188.5L100.287 187.5ZM106.262 188.5C105.986 188.5 105.762 188.276 105.762 188C105.762 187.724 105.986 187.5 106.262 187.5L106.262 188.5ZM112.238 187.5C112.514 187.5 112.738 187.724 112.738 188C112.738 188.276 112.514 188.5 112.238 188.5L112.238 187.5ZM118.214 188.5C117.938 188.5 117.714 188.276 117.714 188C117.714 187.724 117.938 187.5 118.214 187.5L118.214 188.5ZM124.19 187.5C124.466 187.5 124.69 187.724 124.69 188C124.69 188.276 124.466 188.5 124.19 188.5L124.19 187.5ZM130.165 188.5C129.889 188.5 129.665 188.276 129.665 188C129.665 187.724 129.889 187.5 130.165 187.5L130.165 188.5ZM136.141 187.5C136.417 187.5 136.641 187.724 136.641 188C136.641 188.276 136.417 188.5 136.141 188.5L136.141 187.5ZM142.117 188.5C141.841 188.5 141.617 188.276 141.617 188C141.617 187.724 141.841 187.5 142.117 187.5L142.117 188.5ZM148.093 187.5C148.369 187.5 148.593 187.724 148.593 188C148.593 188.276 148.369 188.5 148.093 188.5L148.093 187.5ZM154.068 188.5C153.792 188.5 153.568 188.276 153.568 188C153.568 187.724 153.792 187.5 154.068 187.5L154.068 188.5ZM160.044 187.5C160.32 187.5 160.544 187.724 160.544 188C160.544 188.276 160.32 188.5 160.044 188.5L160.044 187.5ZM166.02 188.5C165.744 188.5 165.52 188.276 165.52 188C165.52 187.724 165.744 187.5 166.02 187.5L166.02 188.5ZM171.996 187.5C172.272 187.5 172.496 187.724 172.496 188C172.496 188.276 172.272 188.5 171.996 188.5L171.996 187.5ZM177.971 188.5C177.695 188.5 177.471 188.276 177.471 188C177.471 187.724 177.695 187.5 177.971 187.5L177.971 188.5ZM183.947 187.5C184.223 187.5 184.447 187.724 184.447 188C184.447 188.276 184.223 188.5 183.947 188.5L183.947 187.5ZM189.923 188.5C189.647 188.5 189.423 188.276 189.423 188C189.423 187.724 189.647 187.5 189.923 187.5L189.923 188.5ZM195.899 187.5C196.175 187.5 196.399 187.724 196.399 188C196.399 188.276 196.175 188.5 195.899 188.5L195.899 187.5ZM201.874 188.5C201.598 188.5 201.374 188.276 201.374 188C201.374 187.724 201.598 187.5 201.874 187.5L201.874 188.5ZM207.85 187.5C208.126 187.5 208.35 187.724 208.35 188C208.35 188.276 208.126 188.5 207.85 188.5L207.85 187.5ZM213.826 188.5C213.55 188.5 213.326 188.276 213.326 188C213.326 187.724 213.55 187.5 213.826 187.5L213.826 188.5ZM219.801 187.5C220.078 187.5 220.301 187.724 220.301 188C220.301 188.276 220.078 188.5 219.801 188.5L219.801 187.5ZM225.777 188.5C225.501 188.5 225.277 188.276 225.277 188C225.277 187.724 225.501 187.5 225.777 187.5L225.777 188.5ZM231.753 187.5C232.029 187.5 232.253 187.724 232.253 188C232.253 188.276 232.029 188.5 231.753 188.5L231.753 187.5ZM237.729 188.5C237.453 188.5 237.229 188.276 237.229 188C237.229 187.724 237.453 187.5 237.729 187.5L237.729 188.5ZM243.704 187.5C243.981 187.5 244.204 187.724 244.204 188C244.204 188.276 243.981 188.5 243.704 188.5L243.704 187.5ZM249.68 188.5C249.404 188.5 249.18 188.276 249.18 188C249.18 187.724 249.404 187.5 249.68 187.5L249.68 188.5ZM255.656 187.5C255.932 187.5 256.156 187.724 256.156 188C256.156 188.276 255.932 188.5 255.656 188.5L255.656 187.5ZM261.632 188.5C261.355 188.5 261.132 188.276 261.132 188C261.132 187.724 261.355 187.5 261.632 187.5L261.632 188.5ZM267.607 187.5C267.884 187.5 268.107 187.724 268.107 188C268.107 188.276 267.884 188.5 267.607 188.5L267.607 187.5ZM273.583 188.5C273.307 188.5 273.083 188.276 273.083 188C273.083 187.724 273.307 187.5 273.583 187.5L273.583 188.5ZM279.559 187.5C279.835 187.5 280.059 187.724 280.059 188C280.059 188.276 279.835 188.5 279.559 188.5L279.559 187.5ZM285.535 188.5C285.258 188.5 285.035 188.276 285.035 188C285.035 187.724 285.258 187.5 285.535 187.5L285.535 188.5ZM291.51 187.5C291.786 187.5 292.01 187.724 292.01 188C292.01 188.276 291.786 188.5 291.51 188.5L291.51 187.5ZM297.486 188.5C297.21 188.5 296.986 188.276 296.986 188C296.986 187.724 297.21 187.5 297.486 187.5L297.486 188.5ZM303.462 187.5C303.738 187.5 303.962 187.724 303.962 188C303.962 188.276 303.738 188.5 303.462 188.5L303.462 187.5ZM309.438 188.5C309.161 188.5 308.938 188.276 308.938 188C308.938 187.724 309.161 187.5 309.438 187.5L309.438 188.5ZM315.413 187.5C315.689 187.5 315.913 187.724 315.913 188C315.913 188.276 315.689 188.5 315.413 188.5L315.413 187.5ZM321.389 188.5C321.113 188.5 320.889 188.276 320.889 188C320.889 187.724 321.113 187.5 321.389 187.5L321.389 188.5ZM327.365 187.5C327.641 187.5 327.865 187.724 327.865 188C327.865 188.276 327.641 188.5 327.365 188.5L327.365 187.5ZM333.341 188.5C333.064 188.5 332.841 188.276 332.841 188C332.841 187.724 333.064 187.5 333.341 187.5L333.341 188.5ZM339.316 187.5C339.592 187.5 339.816 187.724 339.816 188C339.816 188.276 339.592 188.5 339.316 188.5L339.316 187.5ZM345.292 188.5C345.016 188.5 344.792 188.276 344.792 188C344.792 187.724 345.016 187.5 345.292 187.5L345.292 188.5ZM351.268 187.5C351.544 187.5 351.768 187.724 351.768 188C351.768 188.276 351.544 188.5 351.268 188.5L351.268 187.5ZM357.243 188.5C356.967 188.5 356.743 188.276 356.743 188C356.743 187.724 356.967 187.5 357.243 187.5L357.243 188.5ZM363.219 187.5C363.495 187.5 363.719 187.724 363.719 188C363.719 188.276 363.495 188.5 363.219 188.5L363.219 187.5ZM369.195 188.5C368.919 188.5 368.695 188.276 368.695 188C368.695 187.724 368.919 187.5 369.195 187.5L369.195 188.5ZM375.171 187.5C375.447 187.5 375.671 187.724 375.671 188C375.671 188.276 375.447 188.5 375.171 188.5L375.171 187.5ZM381.146 188.5C380.87 188.5 380.646 188.276 380.646 188C380.646 187.724 380.87 187.5 381.146 187.5L381.146 188.5ZM387.122 187.5C387.398 187.5 387.622 187.724 387.622 188C387.622 188.276 387.398 188.5 387.122 188.5L387.122 187.5ZM393.098 188.5C392.822 188.5 392.598 188.276 392.598 188C392.598 187.724 392.822 187.5 393.098 187.5L393.098 188.5ZM399.074 187.5C399.35 187.5 399.574 187.724 399.574 188C399.574 188.276 399.35 188.5 399.074 188.5L399.074 187.5ZM405.049 188.5C404.773 188.5 404.549 188.276 404.549 188C404.549 187.724 404.773 187.5 405.049 187.5L405.049 188.5ZM411.025 187.5C411.301 187.5 411.525 187.724 411.525 188C411.525 188.276 411.301 188.5 411.025 188.5L411.025 187.5ZM417.001 188.5C416.725 188.5 416.501 188.276 416.501 188C416.501 187.724 416.725 187.5 417.001 187.5L417.001 188.5ZM422.977 187.5C423.253 187.5 423.477 187.724 423.477 188C423.477 188.276 423.253 188.5 422.977 188.5L422.977 187.5ZM428.952 188.5C428.676 188.5 428.452 188.276 428.452 188C428.452 187.724 428.676 187.5 428.952 187.5L428.952 188.5ZM434.928 187.5C435.204 187.5 435.428 187.724 435.428 188C435.428 188.276 435.204 188.5 434.928 188.5L434.928 187.5ZM440.904 188.5C440.628 188.5 440.404 188.276 440.404 188C440.404 187.724 440.628 187.5 440.904 187.5L440.904 188.5ZM446.88 187.5C447.156 187.5 447.38 187.724 447.38 188C447.38 188.276 447.156 188.5 446.88 188.5L446.88 187.5ZM452.855 188.5C452.579 188.5 452.355 188.276 452.355 188C452.355 187.724 452.579 187.5 452.855 187.5L452.855 188.5ZM458.831 187.5C459.107 187.5 459.331 187.724 459.331 188C459.331 188.276 459.107 188.5 458.831 188.5L458.831 187.5ZM464.807 188.5C464.531 188.5 464.307 188.276 464.307 188C464.307 187.724 464.531 187.5 464.807 187.5L464.807 188.5ZM470.783 187.5C471.059 187.5 471.283 187.724 471.283 188C471.283 188.276 471.059 188.5 470.783 188.5L470.783 187.5ZM476.758 188.5C476.482 188.5 476.258 188.276 476.258 188C476.258 187.724 476.482 187.5 476.758 187.5L476.758 188.5ZM482.734 187.5C483.01 187.5 483.234 187.724 483.234 188C483.234 188.276 483.01 188.5 482.734 188.5L482.734 187.5ZM488.71 188.5C488.434 188.5 488.21 188.276 488.21 188C488.21 187.724 488.434 187.5 488.71 187.5L488.71 188.5ZM494.685 187.5C494.962 187.5 495.185 187.724 495.185 188C495.185 188.276 494.962 188.5 494.685 188.5L494.685 187.5ZM500.661 188.5C500.385 188.5 500.161 188.276 500.161 188C500.161 187.724 500.385 187.5 500.661 187.5L500.661 188.5ZM506.637 187.5C506.913 187.5 507.137 187.724 507.137 188C507.137 188.276 506.913 188.5 506.637 188.5L506.637 187.5ZM512.613 188.5C512.337 188.5 512.113 188.276 512.113 188C512.113 187.724 512.337 187.5 512.613 187.5L512.613 188.5ZM518.588 187.5C518.865 187.5 519.088 187.724 519.088 188C519.088 188.276 518.865 188.5 518.588 188.5L518.588 187.5ZM524.564 188.5C524.288 188.5 524.064 188.276 524.064 188C524.064 187.724 524.288 187.5 524.564 187.5L524.564 188.5ZM530.54 187.5C530.816 187.5 531.04 187.724 531.04 188C531.04 188.276 530.816 188.5 530.54 188.5L530.54 187.5ZM536.516 188.5C536.24 188.5 536.016 188.276 536.016 188C536.016 187.724 536.24 187.5 536.516 187.5L536.516 188.5ZM542.491 187.5C542.768 187.5 542.991 187.724 542.991 188C542.991 188.276 542.768 188.5 542.491 188.5L542.491 187.5ZM548.467 188.5C548.191 188.5 547.967 188.276 547.967 188C547.967 187.724 548.191 187.5 548.467 187.5L548.467 188.5ZM554.443 187.5C554.719 187.5 554.943 187.724 554.943 188C554.943 188.276 554.719 188.5 554.443 188.5L554.443 187.5ZM560.419 188.5C560.143 188.5 559.919 188.276 559.919 188C559.919 187.724 560.143 187.5 560.419 187.5L560.419 188.5ZM566.395 187.5C566.671 187.5 566.895 187.724 566.895 188C566.895 188.276 566.671 188.5 566.395 188.5L566.395 187.5ZM572.37 188.5C572.094 188.5 571.87 188.276 571.87 188C571.87 187.724 572.094 187.5 572.37 187.5L572.37 188.5ZM578.346 187.5C578.622 187.5 578.846 187.724 578.846 188C578.846 188.276 578.622 188.5 578.346 188.5L578.346 187.5ZM584.322 188.5C584.046 188.5 583.822 188.276 583.822 188C583.822 187.724 584.046 187.5 584.322 187.5L584.322 188.5ZM590.298 187.5C590.574 187.5 590.798 187.724 590.798 188C590.798 188.276 590.574 188.5 590.298 188.5L590.298 187.5ZM596.273 188.5C595.997 188.5 595.773 188.276 595.773 188C595.773 187.724 595.997 187.5 596.273 187.5L596.273 188.5ZM602.249 187.5C602.525 187.5 602.749 187.724 602.749 188C602.749 188.276 602.525 188.5 602.249 188.5L602.249 187.5ZM608.225 188.5C607.949 188.5 607.725 188.276 607.725 188C607.725 187.724 607.949 187.5 608.225 187.5L608.225 188.5ZM614.201 187.5C614.477 187.5 614.701 187.724 614.701 188C614.701 188.276 614.477 188.5 614.201 188.5L614.201 187.5ZM620.176 188.5C619.9 188.5 619.676 188.276 619.676 188C619.676 187.724 619.9 187.5 620.176 187.5L620.176 188.5ZM626.152 187.5C626.428 187.5 626.652 187.724 626.652 188C626.652 188.276 626.428 188.5 626.152 188.5L626.152 187.5ZM632.128 188.5C631.852 188.5 631.628 188.276 631.628 188C631.628 187.724 631.852 187.5 632.128 187.5L632.128 188.5ZM638.104 187.5C638.38 187.5 638.604 187.724 638.604 188C638.604 188.276 638.38 188.5 638.104 188.5L638.104 187.5ZM644.08 188.5C643.803 188.5 643.58 188.276 643.58 188C643.58 187.724 643.803 187.5 644.08 187.5L644.08 188.5ZM650.055 187.5C650.331 187.5 650.555 187.724 650.555 188C650.555 188.276 650.331 188.5 650.055 188.5L650.055 187.5ZM656.031 188.5C655.755 188.5 655.531 188.276 655.531 188C655.531 187.724 655.755 187.5 656.031 187.5L656.031 188.5ZM662.007 187.5C662.283 187.5 662.507 187.724 662.507 188C662.507 188.276 662.283 188.5 662.007 188.5L662.007 187.5ZM667.983 188.5C667.706 188.5 667.483 188.276 667.483 188C667.483 187.724 667.706 187.5 667.983 187.5L667.983 188.5ZM673.958 187.5C674.235 187.5 674.458 187.724 674.458 188C674.458 188.276 674.235 188.5 673.958 188.5L673.958 187.5ZM679.934 188.5C679.658 188.5 679.434 188.276 679.434 188C679.434 187.724 679.658 187.5 679.934 187.5L679.934 188.5ZM685.91 187.5C686.186 187.5 686.41 187.724 686.41 188C686.41 188.276 686.186 188.5 685.91 188.5L685.91 187.5ZM691.886 188.5C691.609 188.5 691.386 188.276 691.386 188C691.386 187.724 691.609 187.5 691.886 187.5L691.886 188.5ZM697.861 187.5C698.138 187.5 698.361 187.724 698.361 188C698.361 188.276 698.138 188.5 697.861 188.5L697.861 187.5ZM703.837 188.5C703.561 188.5 703.337 188.276 703.337 188C703.337 187.724 703.561 187.5 703.837 187.5L703.837 188.5ZM709.813 187.5C710.089 187.5 710.313 187.724 710.313 188C710.313 188.276 710.089 188.5 709.813 188.5L709.813 187.5ZM715.789 188.5C715.513 188.5 715.289 188.276 715.289 188C715.289 187.724 715.513 187.5 715.789 187.5L715.789 188.5ZM721.765 187.5C722.041 187.5 722.265 187.724 722.265 188C722.265 188.276 722.041 188.5 721.765 188.5L721.765 187.5ZM727.74 188.5C727.464 188.5 727.24 188.276 727.24 188C727.24 187.724 727.464 187.5 727.74 187.5L727.74 188.5ZM733.716 187.5C733.992 187.5 734.216 187.724 734.216 188C734.216 188.276 733.992 188.5 733.716 188.5L733.716 187.5ZM739.692 188.5C739.416 188.5 739.192 188.276 739.192 188C739.192 187.724 739.416 187.5 739.692 187.5L739.692 188.5ZM745.668 187.5C745.944 187.5 746.168 187.724 746.168 188C746.168 188.276 745.944 188.5 745.668 188.5L745.668 187.5ZM751.643 188.5C751.367 188.5 751.143 188.276 751.143 188C751.143 187.724 751.367 187.5 751.643 187.5L751.643 188.5ZM757.619 187.5C757.895 187.5 758.119 187.724 758.119 188C758.119 188.276 757.895 188.5 757.619 188.5L757.619 187.5ZM763.595 188.5C763.319 188.5 763.095 188.276 763.095 188C763.095 187.724 763.319 187.5 763.595 187.5L763.595 188.5ZM769.571 187.5C769.847 187.5 770.071 187.724 770.071 188C770.071 188.276 769.847 188.5 769.571 188.5L769.571 187.5ZM775.546 188.5C775.27 188.5 775.046 188.276 775.046 188C775.046 187.724 775.27 187.5 775.546 187.5L775.546 188.5ZM781.522 187.5C781.798 187.5 782.022 187.724 782.022 188C782.022 188.276 781.798 188.5 781.522 188.5L781.522 187.5ZM787.498 188.5C787.222 188.5 786.998 188.276 786.998 188C786.998 187.724 787.222 187.5 787.498 187.5L787.498 188.5ZM793.474 187.5C793.75 187.5 793.974 187.724 793.974 188C793.974 188.276 793.75 188.5 793.474 188.5L793.474 187.5ZM799.45 188.5C799.173 188.5 798.95 188.276 798.95 188C798.95 187.724 799.173 187.5 799.45 187.5L799.45 188.5ZM805.425 187.5C805.701 187.5 805.925 187.724 805.925 188C805.925 188.276 805.701 188.5 805.425 188.5L805.425 187.5ZM811.401 188.5C811.125 188.5 810.901 188.276 810.901 188C810.901 187.724 811.125 187.5 811.401 187.5L811.401 188.5ZM817.377 187.5C817.653 187.5 817.877 187.724 817.877 188C817.877 188.276 817.653 188.5 817.377 188.5L817.377 187.5ZM823.353 188.5C823.076 188.5 822.853 188.276 822.853 188C822.853 187.724 823.076 187.5 823.353 187.5L823.353 188.5ZM829.328 187.5C829.605 187.5 829.828 187.724 829.828 188C829.828 188.276 829.605 188.5 829.328 188.5L829.328 187.5ZM835.304 188.5C835.028 188.5 834.804 188.276 834.804 188C834.804 187.724 835.028 187.5 835.304 187.5L835.304 188.5ZM841.28 187.5C841.556 187.5 841.78 187.724 841.78 188C841.78 188.276 841.556 188.5 841.28 188.5L841.28 187.5ZM847.256 188.5C846.979 188.5 846.756 188.276 846.756 188C846.756 187.724 846.979 187.5 847.256 187.5L847.256 188.5ZM853.231 187.5C853.508 187.5 853.731 187.724 853.731 188C853.731 188.276 853.508 188.5 853.231 188.5L853.231 187.5ZM859.207 188.5C858.931 188.5 858.707 188.276 858.707 188C858.707 187.724 858.931 187.5 859.207 187.5L859.207 188.5ZM865.183 187.5C865.459 187.5 865.683 187.724 865.683 188C865.683 188.276 865.459 188.5 865.183 188.5L865.183 187.5ZM871.159 188.5C870.883 188.5 870.659 188.276 870.659 188C870.659 187.724 870.883 187.5 871.159 187.5L871.159 188.5ZM877.135 187.5C877.411 187.5 877.635 187.724 877.635 188C877.635 188.276 877.411 188.5 877.135 188.5L877.135 187.5ZM883.11 188.5C882.834 188.5 882.61 188.276 882.61 188C882.61 187.724 882.834 187.5 883.11 187.5L883.11 188.5ZM889.086 187.5C889.362 187.5 889.586 187.724 889.586 188C889.586 188.276 889.362 188.5 889.086 188.5L889.086 187.5ZM895.062 188.5C894.786 188.5 894.562 188.276 894.562 188C894.562 187.724 894.786 187.5 895.062 187.5L895.062 188.5ZM901.038 187.5C901.314 187.5 901.538 187.724 901.538 188C901.538 188.276 901.314 188.5 901.038 188.5L901.038 187.5ZM907.013 188.5C906.737 188.5 906.513 188.276 906.513 188C906.513 187.724 906.737 187.5 907.013 187.5L907.013 188.5ZM912.547 187.335C912.821 187.299 913.072 187.492 913.108 187.766C913.144 188.04 912.951 188.291 912.677 188.327L912.547 187.335ZM917.847 186.944C917.592 187.05 917.3 186.929 917.194 186.674C917.088 186.419 917.209 186.126 917.464 186.02L917.847 186.944ZM921.871 183.471C922.09 183.303 922.404 183.344 922.572 183.563C922.74 183.782 922.699 184.096 922.48 184.264L921.871 183.471ZM926.264 180.48C926.096 180.699 925.782 180.74 925.563 180.572C925.344 180.404 925.303 180.09 925.471 179.871L926.264 180.48ZM928.02 175.464C928.126 175.209 928.419 175.088 928.674 175.194C928.929 175.3 929.05 175.592 928.944 175.847L928.02 175.464ZM930.327 170.677C930.291 170.951 930.04 171.144 929.766 171.108C929.492 171.072 929.299 170.821 929.335 170.547L930.327 170.677ZM929.5 165.018C929.5 164.742 929.724 164.518 930 164.518C930.276 164.518 930.5 164.742 930.5 165.018L929.5 165.018ZM930.5 159.053C930.5 159.33 930.276 159.553 930 159.553C929.724 159.553 929.5 159.33 929.5 159.053L930.5 159.053ZM929.5 153.089C929.5 152.813 929.724 152.589 930 152.589C930.276 152.589 930.5 152.813 930.5 153.089L929.5 153.089ZM930.5 147.125C930.5 147.401 930.276 147.625 930 147.625C929.724 147.625 929.5 147.401 929.5 147.125L930.5 147.125ZM929.5 141.161C929.5 140.885 929.724 140.661 930 140.661C930.276 140.661 930.5 140.885 930.5 141.161L929.5 141.161ZM930.5 135.196C930.5 135.473 930.276 135.696 930 135.696C929.724 135.696 929.5 135.473 929.5 135.196L930.5 135.196ZM929.5 129.232C929.5 128.956 929.724 128.732 930 128.732C930.276 128.732 930.5 128.956 930.5 129.232L929.5 129.232ZM930.5 123.268C930.5 123.544 930.276 123.768 930 123.768C929.724 123.768 929.5 123.544 929.5 123.268L930.5 123.268ZM929.5 117.304C929.5 117.027 929.724 116.804 930 116.804C930.276 116.804 930.5 117.027 930.5 117.304L929.5 117.304ZM930.5 111.339C930.5 111.615 930.276 111.839 930 111.839C929.724 111.839 929.5 111.615 929.5 111.339L930.5 111.339ZM929.5 105.375C929.5 105.099 929.724 104.875 930 104.875C930.276 104.875 930.5 105.099 930.5 105.375L929.5 105.375ZM930.5 99.4107C930.5 99.6868 930.276 99.9107 930 99.9107C929.724 99.9107 929.5 99.6868 929.5 99.4107L930.5 99.4107ZM929.5 93.4464C929.5 93.1702 929.724 92.9464 930 92.9464C930.276 92.9464 930.5 93.1702 930.5 93.4464L929.5 93.4464ZM930.5 87.4821C930.5 87.7582 930.276 87.9821 930 87.9821C929.724 87.9821 929.5 87.7582 929.5 87.4821L930.5 87.4821ZM929.5 81.5178C929.5 81.2417 929.724 81.0178 930 81.0178C930.276 81.0178 930.5 81.2417 930.5 81.5178L929.5 81.5178ZM930.5 75.5535C930.5 75.8297 930.276 76.0535 930 76.0535C929.724 76.0535 929.5 75.8297 929.5 75.5535L930.5 75.5535ZM929.5 69.5893C929.5 69.3131 929.724 69.0893 930 69.0893C930.276 69.0893 930.5 69.3131 930.5 69.5893L929.5 69.5893ZM930.5 63.625C930.5 63.9011 930.276 64.125 930 64.125C929.724 64.125 929.5 63.9011 929.5 63.625L930.5 63.625ZM929.5 57.6607C929.5 57.3845 929.724 57.1607 930 57.1607C930.276 57.1607 930.5 57.3845 930.5 57.6607L929.5 57.6607ZM930.5 51.6964C930.5 51.9726 930.276 52.1964 930 52.1964C929.724 52.1964 929.5 51.9726 929.5 51.6964L930.5 51.6964ZM929.5 45.7321C929.5 45.456 929.724 45.2321 930 45.2321C930.276 45.2321 930.5 45.456 930.5 45.7321L929.5 45.7321ZM930.5 39.7679C930.5 40.044 930.276 40.2679 930 40.2679C929.724 40.2679 929.5 40.044 929.5 39.7679L930.5 39.7679ZM929.5 33.8036C929.5 33.5274 929.724 33.3036 930 33.3036C930.276 33.3036 930.5 33.5274 930.5 33.8036L929.5 33.8036ZM930.5 27.8393C930.5 28.1154 930.276 28.3393 930 28.3393C929.724 28.3393 929.5 28.1154 929.5 27.8393L930.5 27.8393ZM929.5 21.875C929.5 21.5989 929.724 21.375 930 21.375C930.276 21.375 930.5 21.5989 930.5 21.875L929.5 21.875ZM930.5 15.9107C930.5 16.1869 930.276 16.4107 930 16.4107C929.724 16.4107 929.5 16.1869 929.5 15.9107L930.5 15.9107ZM929.5 9.94647C929.5 9.67033 929.724 9.44647 930 9.44647C930.276 9.44647 930.5 9.67033 930.5 9.94647L929.5 9.94647ZM930.5 3.98219C930.5 4.25833 930.276 4.48219 930 4.48219C929.724 4.48219 929.5 4.25833 929.5 3.98219L930.5 3.98219ZM6.50003 164.676L6.50006 170.956L5.50006 170.956L5.50003 164.676L6.50003 164.676ZM6.50008 177.235L6.5001 180.375L5.5001 180.375L5.50008 177.235L6.50008 177.235ZM6.5001 180.375C6.50011 181.464 6.63869 182.426 6.90202 183.26L5.9484 183.561C5.64915 182.613 5.50011 181.547 5.5001 180.375L6.5001 180.375ZM10.7514 187.1C11.5866 187.362 12.5493 187.5 13.6384 187.5L13.6384 188.5C12.4664 188.5 11.4003 188.352 10.4518 188.054L10.7514 187.1ZM13.6384 187.5L16.6262 187.5L16.6262 188.5L13.6384 188.5L13.6384 187.5ZM22.602 187.5L28.5777 187.5L28.5777 188.5L22.602 188.5L22.602 187.5ZM34.5535 187.5L40.5292 187.5L40.5292 188.5L34.5535 188.5L34.5535 187.5ZM46.505 187.5L52.4807 187.5L52.4807 188.5L46.505 188.5L46.505 187.5ZM58.4565 187.5L64.4322 187.5L64.4322 188.5L58.4565 188.5L58.4565 187.5ZM70.4079 187.5L76.3837 187.5L76.3837 188.5L70.4079 188.5L70.4079 187.5ZM82.3594 187.5L88.3352 187.5L88.3352 188.5L82.3594 188.5L82.3594 187.5ZM94.3109 187.5L100.287 187.5L100.287 188.5L94.3109 188.5L94.3109 187.5ZM106.262 187.5L112.238 187.5L112.238 188.5L106.262 188.5L106.262 187.5ZM118.214 187.5L124.19 187.5L124.19 188.5L118.214 188.5L118.214 187.5ZM130.165 187.5L136.141 187.5L136.141 188.5L130.165 188.5L130.165 187.5ZM142.117 187.5L148.093 187.5L148.093 188.5L142.117 188.5L142.117 187.5ZM154.068 187.5L160.044 187.5L160.044 188.5L154.068 188.5L154.068 187.5ZM166.02 187.5L171.996 187.5L171.996 188.5L166.02 188.5L166.02 187.5ZM177.971 187.5L183.947 187.5L183.947 188.5L177.971 188.5L177.971 187.5ZM189.923 187.5L195.899 187.5L195.899 188.5L189.923 188.5L189.923 187.5ZM201.874 187.5L207.85 187.5L207.85 188.5L201.874 188.5L201.874 187.5ZM213.826 187.5L219.801 187.5L219.801 188.5L213.826 188.5L213.826 187.5ZM225.777 187.5L231.753 187.5L231.753 188.5L225.777 188.5L225.777 187.5ZM237.729 187.5L243.704 187.5L243.704 188.5L237.729 188.5L237.729 187.5ZM249.68 187.5L255.656 187.5L255.656 188.5L249.68 188.5L249.68 187.5ZM261.632 187.5L267.607 187.5L267.607 188.5L261.632 188.5L261.632 187.5ZM273.583 187.5L279.559 187.5L279.559 188.5L273.583 188.5L273.583 187.5ZM285.535 187.5L291.51 187.5L291.51 188.5L285.535 188.5L285.535 187.5ZM297.486 187.5L303.462 187.5L303.462 188.5L297.486 188.5L297.486 187.5ZM309.438 187.5L315.413 187.5L315.413 188.5L309.438 188.5L309.438 187.5ZM321.389 187.5L327.365 187.5L327.365 188.5L321.389 188.5L321.389 187.5ZM333.341 187.5L339.316 187.5L339.316 188.5L333.341 188.5L333.341 187.5ZM345.292 187.5L351.268 187.5L351.268 188.5L345.292 188.5L345.292 187.5ZM357.243 187.5L363.219 187.5L363.219 188.5L357.243 188.5L357.243 187.5ZM369.195 187.5L375.171 187.5L375.171 188.5L369.195 188.5L369.195 187.5ZM381.146 187.5L387.122 187.5L387.122 188.5L381.146 188.5L381.146 187.5ZM393.098 187.5L399.074 187.5L399.074 188.5L393.098 188.5L393.098 187.5ZM405.049 187.5L411.025 187.5L411.025 188.5L405.049 188.5L405.049 187.5ZM417.001 187.5L422.977 187.5L422.977 188.5L417.001 188.5L417.001 187.5ZM428.952 187.5L434.928 187.5L434.928 188.5L428.952 188.5L428.952 187.5ZM440.904 187.5L446.88 187.5L446.88 188.5L440.904 188.5L440.904 187.5ZM452.855 187.5L458.831 187.5L458.831 188.5L452.855 188.5L452.855 187.5ZM464.807 187.5L470.783 187.5L470.783 188.5L464.807 188.5L464.807 187.5ZM476.758 187.5L482.734 187.5L482.734 188.5L476.758 188.5L476.758 187.5ZM488.71 187.5L494.685 187.5L494.685 188.5L488.71 188.5L488.71 187.5ZM500.661 187.5L506.637 187.5L506.637 188.5L500.661 188.5L500.661 187.5ZM512.613 187.5L518.588 187.5L518.588 188.5L512.613 188.5L512.613 187.5ZM524.564 187.5L530.54 187.5L530.54 188.5L524.564 188.5L524.564 187.5ZM536.516 187.5L542.491 187.5L542.491 188.5L536.516 188.5L536.516 187.5ZM548.467 187.5L554.443 187.5L554.443 188.5L548.467 188.5L548.467 187.5ZM560.419 187.5L566.395 187.5L566.395 188.5L560.419 188.5L560.419 187.5ZM572.37 187.5L578.346 187.5L578.346 188.5L572.37 188.5L572.37 187.5ZM584.322 187.5L590.298 187.5L590.298 188.5L584.322 188.5L584.322 187.5ZM596.273 187.5L602.249 187.5L602.249 188.5L596.273 188.5L596.273 187.5ZM608.225 187.5L614.201 187.5L614.201 188.5L608.225 188.5L608.225 187.5ZM620.176 187.5L626.152 187.5L626.152 188.5L620.176 188.5L620.176 187.5ZM632.128 187.5L638.104 187.5L638.104 188.5L632.128 188.5L632.128 187.5ZM644.08 187.5L650.055 187.5L650.055 188.5L644.08 188.5L644.08 187.5ZM656.031 187.5L662.007 187.5L662.007 188.5L656.031 188.5L656.031 187.5ZM667.983 187.5L673.958 187.5L673.958 188.5L667.983 188.5L667.983 187.5ZM679.934 187.5L685.91 187.5L685.91 188.5L679.934 188.5L679.934 187.5ZM691.886 187.5L697.861 187.5L697.861 188.5L691.886 188.5L691.886 187.5ZM703.837 187.5L709.813 187.5L709.813 188.5L703.837 188.5L703.837 187.5ZM715.789 187.5L721.765 187.5L721.765 188.5L715.789 188.5L715.789 187.5ZM727.74 187.5L733.716 187.5L733.716 188.5L727.74 188.5L727.74 187.5ZM739.692 187.5L745.668 187.5L745.668 188.5L739.692 188.5L739.692 187.5ZM751.643 187.5L757.619 187.5L757.619 188.5L751.643 188.5L751.643 187.5ZM763.595 187.5L769.571 187.5L769.571 188.5L763.595 188.5L763.595 187.5ZM775.546 187.5L781.522 187.5L781.522 188.5L775.546 188.5L775.546 187.5ZM787.498 187.5L793.474 187.5L793.474 188.5L787.498 188.5L787.498 187.5ZM799.45 187.5L805.425 187.5L805.425 188.5L799.45 188.5L799.45 187.5ZM811.401 187.5L817.377 187.5L817.377 188.5L811.401 188.5L811.401 187.5ZM823.353 187.5L829.328 187.5L829.328 188.5L823.353 188.5L823.353 187.5ZM835.304 187.5L841.28 187.5L841.28 188.5L835.304 188.5L835.304 187.5ZM847.256 187.5L853.231 187.5L853.231 188.5L847.256 188.5L847.256 187.5ZM859.207 187.5L865.183 187.5L865.183 188.5L859.207 188.5L859.207 187.5ZM871.159 187.5L877.135 187.5L877.135 188.5L871.159 188.5L871.159 187.5ZM883.11 187.5L889.086 187.5L889.086 188.5L883.11 188.5L883.11 187.5ZM895.062 187.5L901.038 187.5L901.038 188.5L895.062 188.5L895.062 187.5ZM907.013 187.5L910 187.5L910 188.5L907.013 188.5L907.013 187.5ZM910 187.5C910.864 187.5 911.714 187.444 912.547 187.335L912.677 188.327C911.8 188.441 910.907 188.5 910 188.5L910 187.5ZM917.464 186.02C919.049 185.363 920.529 184.503 921.871 183.471L922.48 184.264C921.07 185.348 919.514 186.253 917.847 186.944L917.464 186.02ZM925.471 179.871C926.503 178.529 927.363 177.049 928.02 175.464L928.944 175.847C928.253 177.514 927.348 179.07 926.264 180.48L925.471 179.871ZM929.335 170.547C929.444 169.714 929.5 168.864 929.5 168L930.5 168C930.5 168.907 930.441 169.8 930.327 170.677L929.335 170.547ZM929.5 168L929.5 165.018L930.5 165.018L930.5 168L929.5 168ZM929.5 159.053L929.5 153.089L930.5 153.089L930.5 159.053L929.5 159.053ZM929.5 147.125L929.5 141.161L930.5 141.161L930.5 147.125L929.5 147.125ZM929.5 135.196L929.5 129.232L930.5 129.232L930.5 135.196L929.5 135.196ZM929.5 123.268L929.5 117.304L930.5 117.304L930.5 123.268L929.5 123.268ZM929.5 111.339L929.5 105.375L930.5 105.375L930.5 111.339L929.5 111.339ZM929.5 99.4107L929.5 93.4464L930.5 93.4464L930.5 99.4107L929.5 99.4107ZM929.5 87.4821L929.5 81.5178L930.5 81.5178L930.5 87.4821L929.5 87.4821ZM929.5 75.5535L929.5 69.5893L930.5 69.5893L930.5 75.5535L929.5 75.5535ZM929.5 63.625L929.5 57.6607L930.5 57.6607L930.5 63.625L929.5 63.625ZM929.5 51.6964L929.5 45.7321L930.5 45.7321L930.5 51.6964L929.5 51.6964ZM929.5 39.7679L929.5 33.8036L930.5 33.8036L930.5 39.7679L929.5 39.7679ZM929.5 27.8393L929.5 21.875L930.5 21.875L930.5 27.8393L929.5 27.8393ZM929.5 15.9107L929.5 9.94647L930.5 9.94647L930.5 15.9107L929.5 15.9107ZM929.5 3.98219L929.5 0.999996L930.5 0.999995L930.5 3.98219L929.5 3.98219ZM929 0.999996C929 0.447704 929.448 -4.43641e-06 930 -4.48469e-06C930.552 -4.53298e-06 931 0.447704 931 0.999995L929 0.999996ZM6.0001 180.375L5.0001 180.375L5.0001 180.375L6.0001 180.375ZM6 155.257L11.7735 165.257L0.226534 165.257L6 155.257ZM7.00001 158.397C7.00001 158.949 6.5523 159.397 6.00001 159.397C5.44773 159.397 5.00001 158.949 5.00001 158.397L7.00001 158.397ZM5.00003 164.676C5.00003 164.124 5.44775 163.676 6.00003 163.676C6.55232 163.676 7.00003 164.124 7.00003 164.676L5.00003 164.676ZM7.00006 170.956C7.00006 171.508 6.55235 171.956 6.00006 171.956C5.44778 171.956 5.00006 171.508 5.00006 170.956L7.00006 170.956ZM5.00008 177.235C5.00008 176.683 5.4478 176.235 6.00008 176.235C6.55237 176.235 7.00008 176.683 7.00009 177.235L5.00008 177.235ZM7.37883 183.11C7.54507 183.637 7.25289 184.198 6.72622 184.365C6.19955 184.531 5.63783 184.239 5.47159 183.712L7.37883 183.11ZM10.3021 188.531C9.77516 188.366 9.48209 187.804 9.64751 187.278C9.81292 186.751 10.3742 186.458 10.9011 186.623L10.3021 188.531ZM16.6262 187C17.1785 187 17.6262 187.448 17.6262 188C17.6262 188.552 17.1785 189 16.6262 189L16.6262 187ZM22.602 189C22.0497 189 21.602 188.552 21.602 188C21.602 187.448 22.0497 187 22.602 187L22.602 189ZM28.5777 187C29.13 187 29.5777 187.448 29.5777 188C29.5777 188.552 29.13 189 28.5777 189L28.5777 187ZM34.5535 189C34.0012 189 33.5535 188.552 33.5535 188C33.5535 187.448 34.0012 187 34.5535 187L34.5535 189ZM40.5292 187C41.0815 187 41.5292 187.448 41.5292 188C41.5292 188.552 41.0815 189 40.5292 189L40.5292 187ZM46.505 189C45.9527 189 45.505 188.552 45.505 188C45.505 187.448 45.9527 187 46.505 187L46.505 189ZM52.4807 187C53.033 187 53.4807 187.448 53.4807 188C53.4807 188.552 53.033 189 52.4807 189L52.4807 187ZM58.4565 189C57.9042 189 57.4565 188.552 57.4565 188C57.4565 187.448 57.9042 187 58.4565 187L58.4565 189ZM64.4322 187C64.9845 187 65.4322 187.448 65.4322 188C65.4322 188.552 64.9845 189 64.4322 189L64.4322 187ZM70.4079 189C69.8557 189 69.4079 188.552 69.4079 188C69.4079 187.448 69.8557 187 70.4079 187L70.4079 189ZM76.3837 187C76.936 187 77.3837 187.448 77.3837 188C77.3837 188.552 76.936 189 76.3837 189L76.3837 187ZM82.3594 189C81.8071 189 81.3594 188.552 81.3594 188C81.3594 187.448 81.8071 187 82.3594 187L82.3594 189ZM88.3352 187C88.8875 187 89.3352 187.448 89.3352 188C89.3352 188.552 88.8875 189 88.3352 189L88.3352 187ZM94.3109 189C93.7586 189 93.3109 188.552 93.3109 188C93.3109 187.448 93.7586 187 94.3109 187L94.3109 189ZM100.287 187C100.839 187 101.287 187.448 101.287 188C101.287 188.552 100.839 189 100.287 189L100.287 187ZM106.262 189C105.71 189 105.262 188.552 105.262 188C105.262 187.448 105.71 187 106.262 187L106.262 189ZM112.238 187C112.79 187 113.238 187.448 113.238 188C113.238 188.552 112.79 189 112.238 189L112.238 187ZM118.214 189C117.662 189 117.214 188.552 117.214 188C117.214 187.448 117.662 187 118.214 187L118.214 189ZM124.19 187C124.742 187 125.19 187.448 125.19 188C125.19 188.552 124.742 189 124.19 189L124.19 187ZM130.165 189C129.613 189 129.165 188.552 129.165 188C129.165 187.448 129.613 187 130.165 187L130.165 189ZM136.141 187C136.693 187 137.141 187.448 137.141 188C137.141 188.552 136.693 189 136.141 189L136.141 187ZM142.117 189C141.565 189 141.117 188.552 141.117 188C141.117 187.448 141.565 187 142.117 187L142.117 189ZM148.093 187C148.645 187 149.093 187.448 149.093 188C149.093 188.552 148.645 189 148.093 189L148.093 187ZM154.068 189C153.516 189 153.068 188.552 153.068 188C153.068 187.448 153.516 187 154.068 187L154.068 189ZM160.044 187C160.596 187 161.044 187.448 161.044 188C161.044 188.552 160.596 189 160.044 189L160.044 187ZM166.02 189C165.468 189 165.02 188.552 165.02 188C165.02 187.448 165.468 187 166.02 187L166.02 189ZM171.996 187C172.548 187 172.996 187.448 172.996 188C172.996 188.552 172.548 189 171.996 189L171.996 187ZM177.971 189C177.419 189 176.971 188.552 176.971 188C176.971 187.448 177.419 187 177.971 187L177.971 189ZM183.947 187C184.499 187 184.947 187.448 184.947 188C184.947 188.552 184.499 189 183.947 189L183.947 187ZM189.923 189C189.37 189 188.923 188.552 188.923 188C188.923 187.448 189.37 187 189.923 187L189.923 189ZM195.899 187C196.451 187 196.899 187.448 196.899 188C196.899 188.552 196.451 189 195.899 189L195.899 187ZM201.874 189C201.322 189 200.874 188.552 200.874 188C200.874 187.448 201.322 187 201.874 187L201.874 189ZM207.85 187C208.402 187 208.85 187.448 208.85 188C208.85 188.552 208.402 189 207.85 189L207.85 187ZM213.826 189C213.273 189 212.826 188.552 212.826 188C212.826 187.448 213.273 187 213.826 187L213.826 189ZM219.801 187C220.354 187 220.801 187.448 220.801 188C220.801 188.552 220.354 189 219.801 189L219.801 187ZM225.777 189C225.225 189 224.777 188.552 224.777 188C224.777 187.448 225.225 187 225.777 187L225.777 189ZM231.753 187C232.305 187 232.753 187.448 232.753 188C232.753 188.552 232.305 189 231.753 189L231.753 187ZM237.729 189C237.176 189 236.729 188.552 236.729 188C236.729 187.448 237.176 187 237.729 187L237.729 189ZM243.704 187C244.257 187 244.704 187.448 244.704 188C244.704 188.552 244.257 189 243.704 189L243.704 187ZM249.68 189C249.128 189 248.68 188.552 248.68 188C248.68 187.448 249.128 187 249.68 187L249.68 189ZM255.656 187C256.208 187 256.656 187.448 256.656 188C256.656 188.552 256.208 189 255.656 189L255.656 187ZM261.632 189C261.079 189 260.632 188.552 260.632 188C260.632 187.448 261.079 187 261.632 187L261.632 189ZM267.607 187C268.16 187 268.607 187.448 268.607 188C268.607 188.552 268.16 189 267.607 189L267.607 187ZM273.583 189C273.031 189 272.583 188.552 272.583 188C272.583 187.448 273.031 187 273.583 187L273.583 189ZM279.559 187C280.111 187 280.559 187.448 280.559 188C280.559 188.552 280.111 189 279.559 189L279.559 187ZM285.535 189C284.982 189 284.535 188.552 284.535 188C284.535 187.448 284.982 187 285.535 187L285.535 189ZM291.51 187C292.063 187 292.51 187.448 292.51 188C292.51 188.552 292.063 189 291.51 189L291.51 187ZM297.486 189C296.934 189 296.486 188.552 296.486 188C296.486 187.448 296.934 187 297.486 187L297.486 189ZM303.462 187C304.014 187 304.462 187.448 304.462 188C304.462 188.552 304.014 189 303.462 189L303.462 187ZM309.438 189C308.885 189 308.438 188.552 308.438 188C308.438 187.448 308.885 187 309.438 187L309.438 189ZM315.413 187C315.966 187 316.413 187.448 316.413 188C316.413 188.552 315.966 189 315.413 189L315.413 187ZM321.389 189C320.837 189 320.389 188.552 320.389 188C320.389 187.448 320.837 187 321.389 187L321.389 189ZM327.365 187C327.917 187 328.365 187.448 328.365 188C328.365 188.552 327.917 189 327.365 189L327.365 187ZM333.341 189C332.788 189 332.341 188.552 332.341 188C332.341 187.448 332.788 187 333.341 187L333.341 189ZM339.316 187C339.869 187 340.316 187.448 340.316 188C340.316 188.552 339.869 189 339.316 189L339.316 187ZM345.292 189C344.74 189 344.292 188.552 344.292 188C344.292 187.448 344.74 187 345.292 187L345.292 189ZM351.268 187C351.82 187 352.268 187.448 352.268 188C352.268 188.552 351.82 189 351.268 189L351.268 187ZM357.243 189C356.691 189 356.243 188.552 356.243 188C356.243 187.448 356.691 187 357.243 187L357.243 189ZM363.219 187C363.771 187 364.219 187.448 364.219 188C364.219 188.552 363.771 189 363.219 189L363.219 187ZM369.195 189C368.643 189 368.195 188.552 368.195 188C368.195 187.448 368.643 187 369.195 187L369.195 189ZM375.171 187C375.723 187 376.171 187.448 376.171 188C376.171 188.552 375.723 189 375.171 189L375.171 187ZM381.146 189C380.594 189 380.146 188.552 380.146 188C380.146 187.448 380.594 187 381.146 187L381.146 189ZM387.122 187C387.674 187 388.122 187.448 388.122 188C388.122 188.552 387.674 189 387.122 189L387.122 187ZM393.098 189C392.546 189 392.098 188.552 392.098 188C392.098 187.448 392.546 187 393.098 187L393.098 189ZM399.074 187C399.626 187 400.074 187.448 400.074 188C400.074 188.552 399.626 189 399.074 189L399.074 187ZM405.049 189C404.497 189 404.049 188.552 404.049 188C404.049 187.448 404.497 187 405.049 187L405.049 189ZM411.025 187C411.577 187 412.025 187.448 412.025 188C412.025 188.552 411.577 189 411.025 189L411.025 187ZM417.001 189C416.449 189 416.001 188.552 416.001 188C416.001 187.448 416.449 187 417.001 187L417.001 189ZM422.977 187C423.529 187 423.977 187.448 423.977 188C423.977 188.552 423.529 189 422.977 189L422.977 187ZM428.952 189C428.4 189 427.952 188.552 427.952 188C427.952 187.448 428.4 187 428.952 187L428.952 189ZM434.928 187C435.48 187 435.928 187.448 435.928 188C435.928 188.552 435.48 189 434.928 189L434.928 187ZM440.904 189C440.352 189 439.904 188.552 439.904 188C439.904 187.448 440.352 187 440.904 187L440.904 189ZM446.88 187C447.432 187 447.88 187.448 447.88 188C447.88 188.552 447.432 189 446.88 189L446.88 187ZM452.855 189C452.303 189 451.855 188.552 451.855 188C451.855 187.448 452.303 187 452.855 187L452.855 189ZM458.831 187C459.383 187 459.831 187.448 459.831 188C459.831 188.552 459.383 189 458.831 189L458.831 187ZM464.807 189C464.254 189 463.807 188.552 463.807 188C463.807 187.448 464.254 187 464.807 187L464.807 189ZM470.783 187C471.335 187 471.783 187.448 471.783 188C471.783 188.552 471.335 189 470.783 189L470.783 187ZM476.758 189C476.206 189 475.758 188.552 475.758 188C475.758 187.448 476.206 187 476.758 187L476.758 189ZM482.734 187C483.286 187 483.734 187.448 483.734 188C483.734 188.552 483.286 189 482.734 189L482.734 187ZM488.71 189C488.157 189 487.71 188.552 487.71 188C487.71 187.448 488.157 187 488.71 187L488.71 189ZM494.685 187C495.238 187 495.685 187.448 495.685 188C495.685 188.552 495.238 189 494.685 189L494.685 187ZM500.661 189C500.109 189 499.661 188.552 499.661 188C499.661 187.448 500.109 187 500.661 187L500.661 189ZM506.637 187C507.189 187 507.637 187.448 507.637 188C507.637 188.552 507.189 189 506.637 189L506.637 187ZM512.613 189C512.06 189 511.613 188.552 511.613 188C511.613 187.448 512.06 187 512.613 187L512.613 189ZM518.588 187C519.141 187 519.588 187.448 519.588 188C519.588 188.552 519.141 189 518.588 189L518.588 187ZM524.564 189C524.012 189 523.564 188.552 523.564 188C523.564 187.448 524.012 187 524.564 187L524.564 189ZM530.54 187C531.092 187 531.54 187.448 531.54 188C531.54 188.552 531.092 189 530.54 189L530.54 187ZM536.516 189C535.963 189 535.516 188.552 535.516 188C535.516 187.448 535.963 187 536.516 187L536.516 189ZM542.491 187C543.044 187 543.491 187.448 543.491 188C543.491 188.552 543.044 189 542.491 189L542.491 187ZM548.467 189C547.915 189 547.467 188.552 547.467 188C547.467 187.448 547.915 187 548.467 187L548.467 189ZM554.443 187C554.995 187 555.443 187.448 555.443 188C555.443 188.552 554.995 189 554.443 189L554.443 187ZM560.419 189C559.867 189 559.419 188.552 559.419 188C559.419 187.448 559.867 187 560.419 187L560.419 189ZM566.395 187C566.947 187 567.395 187.448 567.395 188C567.395 188.552 566.947 189 566.395 189L566.395 187ZM572.37 189C571.818 189 571.37 188.552 571.37 188C571.37 187.448 571.818 187 572.37 187L572.37 189ZM578.346 187C578.898 187 579.346 187.448 579.346 188C579.346 188.552 578.898 189 578.346 189L578.346 187ZM584.322 189C583.77 189 583.322 188.552 583.322 188C583.322 187.448 583.77 187 584.322 187L584.322 189ZM590.298 187C590.85 187 591.298 187.448 591.298 188C591.298 188.552 590.85 189 590.298 189L590.298 187ZM596.273 189C595.721 189 595.273 188.552 595.273 188C595.273 187.448 595.721 187 596.273 187L596.273 189ZM602.249 187C602.801 187 603.249 187.448 603.249 188C603.249 188.552 602.801 189 602.249 189L602.249 187ZM608.225 189C607.673 189 607.225 188.552 607.225 188C607.225 187.448 607.673 187 608.225 187L608.225 189ZM614.201 187C614.753 187 615.201 187.448 615.201 188C615.201 188.552 614.753 189 614.201 189L614.201 187ZM620.176 189C619.624 189 619.176 188.552 619.176 188C619.176 187.448 619.624 187 620.176 187L620.176 189ZM626.152 187C626.705 187 627.152 187.448 627.152 188C627.152 188.552 626.705 189 626.152 189L626.152 187ZM632.128 189C631.576 189 631.128 188.552 631.128 188C631.128 187.448 631.576 187 632.128 187L632.128 189ZM638.104 187C638.656 187 639.104 187.448 639.104 188C639.104 188.552 638.656 189 638.104 189L638.104 187ZM644.08 189C643.527 189 643.08 188.552 643.08 188C643.08 187.448 643.527 187 644.08 187L644.08 189ZM650.055 187C650.608 187 651.055 187.448 651.055 188C651.055 188.552 650.608 189 650.055 189L650.055 187ZM656.031 189C655.479 189 655.031 188.552 655.031 188C655.031 187.448 655.479 187 656.031 187L656.031 189ZM662.007 187C662.559 187 663.007 187.448 663.007 188C663.007 188.552 662.559 189 662.007 189L662.007 187ZM667.983 189C667.43 189 666.983 188.552 666.983 188C666.983 187.448 667.43 187 667.983 187L667.983 189ZM673.958 187C674.511 187 674.958 187.448 674.958 188C674.958 188.552 674.511 189 673.958 189L673.958 187ZM679.934 189C679.382 189 678.934 188.552 678.934 188C678.934 187.448 679.382 187 679.934 187L679.934 189ZM685.91 187C686.462 187 686.91 187.448 686.91 188C686.91 188.552 686.462 189 685.91 189L685.91 187ZM691.886 189C691.333 189 690.886 188.552 690.886 188C690.886 187.448 691.333 187 691.886 187L691.886 189ZM697.861 187C698.414 187 698.861 187.448 698.861 188C698.861 188.552 698.414 189 697.861 189L697.861 187ZM703.837 189C703.285 189 702.837 188.552 702.837 188C702.837 187.448 703.285 187 703.837 187L703.837 189ZM709.813 187C710.365 187 710.813 187.448 710.813 188C710.813 188.552 710.365 189 709.813 189L709.813 187ZM715.789 189C715.237 189 714.789 188.552 714.789 188C714.789 187.448 715.237 187 715.789 187L715.789 189ZM721.765 187C722.317 187 722.765 187.448 722.765 188C722.765 188.552 722.317 189 721.765 189L721.765 187ZM727.74 189C727.188 189 726.74 188.552 726.74 188C726.74 187.448 727.188 187 727.74 187L727.74 189ZM733.716 187C734.268 187 734.716 187.448 734.716 188C734.716 188.552 734.268 189 733.716 189L733.716 187ZM739.692 189C739.14 189 738.692 188.552 738.692 188C738.692 187.448 739.14 187 739.692 187L739.692 189ZM745.668 187C746.22 187 746.668 187.448 746.668 188C746.668 188.552 746.22 189 745.668 189L745.668 187ZM751.643 189C751.091 189 750.643 188.552 750.643 188C750.643 187.448 751.091 187 751.643 187L751.643 189ZM757.619 187C758.171 187 758.619 187.448 758.619 188C758.619 188.552 758.171 189 757.619 189L757.619 187ZM763.595 189C763.043 189 762.595 188.552 762.595 188C762.595 187.448 763.043 187 763.595 187L763.595 189ZM769.571 187C770.123 187 770.571 187.448 770.571 188C770.571 188.552 770.123 189 769.571 189L769.571 187ZM775.546 189C774.994 189 774.546 188.552 774.546 188C774.546 187.448 774.994 187 775.546 187L775.546 189ZM781.522 187C782.075 187 782.522 187.448 782.522 188C782.522 188.552 782.075 189 781.522 189L781.522 187ZM787.498 189C786.946 189 786.498 188.552 786.498 188C786.498 187.448 786.946 187 787.498 187L787.498 189ZM793.474 187C794.026 187 794.474 187.448 794.474 188C794.474 188.552 794.026 189 793.474 189L793.474 187ZM799.45 189C798.897 189 798.45 188.552 798.45 188C798.45 187.448 798.897 187 799.45 187L799.45 189ZM805.425 187C805.978 187 806.425 187.448 806.425 188C806.425 188.552 805.978 189 805.425 189L805.425 187ZM811.401 189C810.849 189 810.401 188.552 810.401 188C810.401 187.448 810.849 187 811.401 187L811.401 189ZM817.377 187C817.929 187 818.377 187.448 818.377 188C818.377 188.552 817.929 189 817.377 189L817.377 187ZM823.353 189C822.8 189 822.353 188.552 822.353 188C822.353 187.448 822.8 187 823.353 187L823.353 189ZM829.328 187C829.881 187 830.328 187.448 830.328 188C830.328 188.552 829.881 189 829.328 189L829.328 187ZM835.304 189C834.752 189 834.304 188.552 834.304 188C834.304 187.448 834.752 187 835.304 187L835.304 189ZM841.28 187C841.832 187 842.28 187.448 842.28 188C842.28 188.552 841.832 189 841.28 189L841.28 187ZM847.256 189C846.703 189 846.256 188.552 846.256 188C846.256 187.448 846.703 187 847.256 187L847.256 189ZM853.231 187C853.784 187 854.231 187.448 854.231 188C854.231 188.552 853.784 189 853.231 189L853.231 187ZM859.207 189C858.655 189 858.207 188.552 858.207 188C858.207 187.448 858.655 187 859.207 187L859.207 189ZM865.183 187C865.735 187 866.183 187.448 866.183 188C866.183 188.552 865.735 189 865.183 189L865.183 187ZM871.159 189C870.607 189 870.159 188.552 870.159 188C870.159 187.448 870.607 187 871.159 187L871.159 189ZM877.135 187C877.687 187 878.135 187.448 878.135 188C878.135 188.552 877.687 189 877.135 189L877.135 187ZM883.11 189C882.558 189 882.11 188.552 882.11 188C882.11 187.448 882.558 187 883.11 187L883.11 189ZM889.086 187C889.638 187 890.086 187.448 890.086 188C890.086 188.552 889.638 189 889.086 189L889.086 187ZM895.062 189C894.51 189 894.062 188.552 894.062 188C894.062 187.448 894.51 187 895.062 187L895.062 189ZM901.038 187C901.59 187 902.038 187.448 902.038 188C902.038 188.552 901.59 189 901.038 189L901.038 187ZM907.013 189C906.461 189 906.013 188.552 906.013 188C906.013 187.448 906.461 187 907.013 187L907.013 189ZM912.483 186.839C913.03 186.768 913.532 187.154 913.604 187.702C913.675 188.249 913.289 188.751 912.741 188.822L912.483 186.839ZM918.039 187.406C917.529 187.618 916.944 187.376 916.732 186.865C916.52 186.355 916.763 185.77 917.273 185.559L918.039 187.406ZM921.566 183.075C922.004 182.738 922.632 182.821 922.969 183.259C923.305 183.697 923.223 184.324 922.785 184.661L921.566 183.075ZM926.661 180.785C926.324 181.223 925.697 181.305 925.259 180.969C924.821 180.632 924.738 180.004 925.075 179.566L926.661 180.785ZM927.559 175.273C927.77 174.762 928.355 174.52 928.865 174.732C929.376 174.944 929.618 175.529 929.406 176.039L927.559 175.273ZM930.823 170.741C930.751 171.289 930.249 171.675 929.702 171.604C929.154 171.532 928.768 171.03 928.839 170.483L930.823 170.741ZM929 165.018C929 164.465 929.448 164.018 930 164.018C930.552 164.018 931 164.465 931 165.018L929 165.018ZM931 159.053C931 159.606 930.552 160.053 930 160.053C929.448 160.053 929 159.606 929 159.053L931 159.053ZM929 153.089C929 152.537 929.448 152.089 930 152.089C930.552 152.089 931 152.537 931 153.089L929 153.089ZM931 147.125C931 147.677 930.552 148.125 930 148.125C929.448 148.125 929 147.677 929 147.125L931 147.125ZM929 141.161C929 140.608 929.448 140.161 930 140.161C930.552 140.161 931 140.608 931 141.161L929 141.161ZM931 135.196C931 135.749 930.552 136.196 930 136.196C929.448 136.196 929 135.749 929 135.196L931 135.196ZM929 129.232C929 128.68 929.448 128.232 930 128.232C930.552 128.232 931 128.68 931 129.232L929 129.232ZM931 123.268C931 123.82 930.552 124.268 930 124.268C929.448 124.268 929 123.82 929 123.268L931 123.268ZM929 117.304C929 116.751 929.448 116.304 930 116.304C930.552 116.304 931 116.751 931 117.304L929 117.304ZM931 111.339C931 111.892 930.552 112.339 930 112.339C929.448 112.339 929 111.892 929 111.339L931 111.339ZM929 105.375C929 104.823 929.448 104.375 930 104.375C930.552 104.375 931 104.823 931 105.375L929 105.375ZM931 99.4107C931 99.9629 930.552 100.411 930 100.411C929.448 100.411 929 99.9629 929 99.4107L931 99.4107ZM929 93.4464C929 92.8941 929.448 92.4464 930 92.4464C930.552 92.4464 931 92.8941 931 93.4464L929 93.4464ZM931 87.4821C931 88.0344 930.552 88.4821 930 88.4821C929.448 88.4821 929 88.0344 929 87.4821L931 87.4821ZM929 81.5178C929 80.9655 929.448 80.5178 930 80.5178C930.552 80.5178 931 80.9655 931 81.5178L929 81.5178ZM931 75.5535C931 76.1058 930.552 76.5535 930 76.5535C929.448 76.5535 929 76.1058 929 75.5535L931 75.5535ZM929 69.5893C929 69.037 929.448 68.5893 930 68.5893C930.552 68.5893 931 69.037 931 69.5893L929 69.5893ZM931 63.625C931 64.1773 930.552 64.625 930 64.625C929.448 64.625 929 64.1773 929 63.625L931 63.625ZM929 57.6607C929 57.1084 929.448 56.6607 930 56.6607C930.552 56.6607 931 57.1084 931 57.6607L929 57.6607ZM931 51.6964C931 52.2487 930.552 52.6964 930 52.6964C929.448 52.6964 929 52.2487 929 51.6964L931 51.6964ZM929 45.7321C929 45.1799 929.448 44.7321 930 44.7321C930.552 44.7321 931 45.1799 931 45.7321L929 45.7321ZM931 39.7679C931 40.3202 930.552 40.7679 930 40.7679C929.448 40.7679 929 40.3202 929 39.7679L931 39.7679ZM929 33.8036C929 33.2513 929.448 32.8036 930 32.8036C930.552 32.8036 931 33.2513 931 33.8036L929 33.8036ZM931 27.8393C931 28.3916 930.552 28.8393 930 28.8393C929.448 28.8393 929 28.3916 929 27.8393L931 27.8393ZM929 21.875C929 21.3227 929.448 20.875 930 20.875C930.552 20.875 931 21.3227 931 21.875L929 21.875ZM931 15.9107C931 16.463 930.552 16.9107 930 16.9107C929.448 16.9107 929 16.463 929 15.9107L931 15.9107ZM929 9.94647C929 9.39418 929.448 8.94647 930 8.94647C930.552 8.94647 931 9.39418 931 9.94647L929 9.94647ZM931 3.98219C931 4.53447 930.552 4.98219 930 4.98219C929.448 4.98219 929 4.53447 929 3.98219L931 3.98219ZM7.00003 164.676L7.00006 170.956L5.00006 170.956L5.00003 164.676L7.00003 164.676ZM7.00009 177.235L7.0001 180.375L5.0001 180.375L5.00008 177.235L7.00009 177.235ZM7.0001 180.375C7.00011 181.422 7.13346 182.333 7.37883 183.11L5.47159 183.712C5.15438 182.707 5.00011 181.589 5.0001 180.375L7.0001 180.375ZM10.9011 186.623C11.6797 186.867 12.5907 187 13.6384 187L13.6384 189C12.4249 189 11.3072 188.847 10.3021 188.531L10.9011 186.623ZM13.6384 187L16.6262 187L16.6262 189L13.6384 189L13.6384 187ZM22.602 187L28.5777 187L28.5777 189L22.602 189L22.602 187ZM34.5535 187L40.5292 187L40.5292 189L34.5535 189L34.5535 187ZM46.505 187L52.4807 187L52.4807 189L46.505 189L46.505 187ZM58.4565 187L64.4322 187L64.4322 189L58.4565 189L58.4565 187ZM70.4079 187L76.3837 187L76.3837 189L70.4079 189L70.4079 187ZM82.3594 187L88.3352 187L88.3352 189L82.3594 189L82.3594 187ZM94.3109 187L100.287 187L100.287 189L94.3109 189L94.3109 187ZM106.262 187L112.238 187L112.238 189L106.262 189L106.262 187ZM118.214 187L124.19 187L124.19 189L118.214 189L118.214 187ZM130.165 187L136.141 187L136.141 189L130.165 189L130.165 187ZM142.117 187L148.093 187L148.093 189L142.117 189L142.117 187ZM154.068 187L160.044 187L160.044 189L154.068 189L154.068 187ZM166.02 187L171.996 187L171.996 189L166.02 189L166.02 187ZM177.971 187L183.947 187L183.947 189L177.971 189L177.971 187ZM189.923 187L195.899 187L195.899 189L189.923 189L189.923 187ZM201.874 187L207.85 187L207.85 189L201.874 189L201.874 187ZM213.826 187L219.801 187L219.801 189L213.826 189L213.826 187ZM225.777 187L231.753 187L231.753 189L225.777 189L225.777 187ZM237.729 187L243.704 187L243.704 189L237.729 189L237.729 187ZM249.68 187L255.656 187L255.656 189L249.68 189L249.68 187ZM261.632 187L267.607 187L267.607 189L261.632 189L261.632 187ZM273.583 187L279.559 187L279.559 189L273.583 189L273.583 187ZM285.535 187L291.51 187L291.51 189L285.535 189L285.535 187ZM297.486 187L303.462 187L303.462 189L297.486 189L297.486 187ZM309.438 187L315.413 187L315.413 189L309.438 189L309.438 187ZM321.389 187L327.365 187L327.365 189L321.389 189L321.389 187ZM333.341 187L339.316 187L339.316 189L333.341 189L333.341 187ZM345.292 187L351.268 187L351.268 189L345.292 189L345.292 187ZM357.243 187L363.219 187L363.219 189L357.243 189L357.243 187ZM369.195 187L375.171 187L375.171 189L369.195 189L369.195 187ZM381.146 187L387.122 187L387.122 189L381.146 189L381.146 187ZM393.098 187L399.074 187L399.074 189L393.098 189L393.098 187ZM405.049 187L411.025 187L411.025 189L405.049 189L405.049 187ZM417.001 187L422.977 187L422.977 189L417.001 189L417.001 187ZM428.952 187L434.928 187L434.928 189L428.952 189L428.952 187ZM440.904 187L446.88 187L446.88 189L440.904 189L440.904 187ZM452.855 187L458.831 187L458.831 189L452.855 189L452.855 187ZM464.807 187L470.783 187L470.783 189L464.807 189L464.807 187ZM476.758 187L482.734 187L482.734 189L476.758 189L476.758 187ZM488.71 187L494.685 187L494.685 189L488.71 189L488.71 187ZM500.661 187L506.637 187L506.637 189L500.661 189L500.661 187ZM512.613 187L518.588 187L518.588 189L512.613 189L512.613 187ZM524.564 187L530.54 187L530.54 189L524.564 189L524.564 187ZM536.516 187L542.491 187L542.491 189L536.516 189L536.516 187ZM548.467 187L554.443 187L554.443 189L548.467 189L548.467 187ZM560.419 187L566.395 187L566.395 189L560.419 189L560.419 187ZM572.37 187L578.346 187L578.346 189L572.37 189L572.37 187ZM584.322 187L590.298 187L590.298 189L584.322 189L584.322 187ZM596.273 187L602.249 187L602.249 189L596.273 189L596.273 187ZM608.225 187L614.201 187L614.201 189L608.225 189L608.225 187ZM620.176 187L626.152 187L626.152 189L620.176 189L620.176 187ZM632.128 187L638.104 187L638.104 189L632.128 189L632.128 187ZM644.08 187L650.055 187L650.055 189L644.08 189L644.08 187ZM656.031 187L662.007 187L662.007 189L656.031 189L656.031 187ZM667.983 187L673.958 187L673.958 189L667.983 189L667.983 187ZM679.934 187L685.91 187L685.91 189L679.934 189L679.934 187ZM691.886 187L697.861 187L697.861 189L691.886 189L691.886 187ZM703.837 187L709.813 187L709.813 189L703.837 189L703.837 187ZM715.789 187L721.765 187L721.765 189L715.789 189L715.789 187ZM727.74 187L733.716 187L733.716 189L727.74 189L727.74 187ZM739.692 187L745.668 187L745.668 189L739.692 189L739.692 187ZM751.643 187L757.619 187L757.619 189L751.643 189L751.643 187ZM763.595 187L769.571 187L769.571 189L763.595 189L763.595 187ZM775.546 187L781.522 187L781.522 189L775.546 189L775.546 187ZM787.498 187L793.474 187L793.474 189L787.498 189L787.498 187ZM799.45 187L805.425 187L805.425 189L799.45 189L799.45 187ZM811.401 187L817.377 187L817.377 189L811.401 189L811.401 187ZM823.353 187L829.328 187L829.328 189L823.353 189L823.353 187ZM835.304 187L841.28 187L841.28 189L835.304 189L835.304 187ZM847.256 187L853.231 187L853.231 189L847.256 189L847.256 187ZM859.207 187L865.183 187L865.183 189L859.207 189L859.207 187ZM871.159 187L877.135 187L877.135 189L871.159 189L871.159 187ZM883.11 187L889.086 187L889.086 189L883.11 189L883.11 187ZM895.062 187L901.038 187L901.038 189L895.062 189L895.062 187ZM907.013 187L910 187L910 189L907.013 189L907.013 187ZM910 187C910.842 187 911.671 186.945 912.483 186.839L912.741 188.822C911.844 188.94 910.929 189 910 189L910 187ZM917.273 185.559C918.817 184.918 920.259 184.08 921.566 183.075L922.785 184.661C921.34 185.771 919.747 186.698 918.039 187.406L917.273 185.559ZM925.075 179.566C926.08 178.259 926.918 176.817 927.559 175.273L929.406 176.039C928.698 177.747 927.771 179.34 926.661 180.785L925.075 179.566ZM928.839 170.483C928.945 169.671 929 168.842 929 168L931 168C931 168.929 930.94 169.844 930.823 170.741L928.839 170.483ZM929 168L929 165.018L931 165.018L931 168L929 168ZM929 159.053L929 153.089L931 153.089L931 159.053L929 159.053ZM929 147.125L929 141.161L931 141.161L931 147.125L929 147.125ZM929 135.196L929 129.232L931 129.232L931 135.196L929 135.196ZM929 123.268L929 117.304L931 117.304L931 123.268L929 123.268ZM929 111.339L929 105.375L931 105.375L931 111.339L929 111.339ZM929 99.4107L929 93.4464L931 93.4464L931 99.4107L929 99.4107ZM929 87.4821L929 81.5178L931 81.5178L931 87.4821L929 87.4821ZM929 75.5535L929 69.5893L931 69.5893L931 75.5535L929 75.5535ZM929 63.625L929 57.6607L931 57.6607L931 63.625L929 63.625ZM929 51.6964L929 45.7321L931 45.7321L931 51.6964L929 51.6964ZM929 39.7679L929 33.8036L931 33.8036L931 39.7679L929 39.7679ZM929 27.8393L929 21.875L931 21.875L931 27.8393L929 27.8393ZM929 15.9107L929 9.94647L931 9.94647L931 15.9107L929 15.9107ZM929 3.98219L929 0.999996L931 0.999995L931 3.98219L929 3.98219Z" fill="url(#paint0_linear_1_483)"/>
<defs>
<linearGradient id="paint0_linear_1_483" x1="5.99983" y1="188.001" x2="578.88" y2="-352.734" gradientUnits="userSpaceOnUse">
<stop stop-color="#224D6F"/>
<stop offset="1" stop-color="#224D6F" stop-opacity="0.28"/>
</linearGradient>
</defs>
</svg>
